
        <svg xmlns="http://www.w3.org/2000/svg" xmlns:xlink="http://www.w3.org/1999/xlink" version="1.1" width="3272.7272727272725" height="3055.9301525527017" viewBox="0 0 3272.7272727272725 3055.9301525527017">
			
			<g transform="scale(13.636363636363635) translate(10, 10)">
				<defs id="SvgjsDefs5014"><linearGradient id="SvgjsLinearGradient5019"><stop id="SvgjsStop5020" stop-color="#51504f" offset="0"/><stop id="SvgjsStop5021" stop-color="#939598" offset="0.5"/><stop id="SvgjsStop5022" stop-color="#51504f" offset="1"/></linearGradient><linearGradient id="SvgjsLinearGradient5023"><stop id="SvgjsStop5024" stop-color="#00ddff" offset="0"/><stop id="SvgjsStop5025" stop-color="#ff00d4" offset="1"/></linearGradient></defs><g id="SvgjsG5015" featureKey="symbolFeature-0" transform="matrix(1.425452501395221,0,0,1.425452501395221,38.8726695221519,-22.673114460039393)" fill="#000"><g xmlns="http://www.w3.org/2000/svg"><path d="M5.471,54.556c3.056,18.035,20.155,30.172,38.181,27.109c18.032-3.056,30.166-20.149,27.106-38.176   C67.705,25.454,50.609,13.318,32.58,16.378C14.552,19.439,2.415,36.531,5.471,54.556z M29.712,39.122   c-3.376,2.794-8.387,2.325-11.182-1.054c-2.795-3.382-2.33-8.389,1.049-11.181c3.382-2.804,8.387-2.335,11.188,1.05   C33.562,31.311,33.09,36.324,29.712,39.122z M60.271,53.023c-4.327,0.736-8.429-2.178-9.158-6.502   c-0.739-4.324,2.175-8.427,6.499-9.159c4.324-0.734,8.426,2.178,9.158,6.502C67.505,48.188,64.595,52.288,60.271,53.023z    M46.837,58.874c3.372-2.798,8.387-2.324,11.181,1.052c2.798,3.382,2.327,8.387-1.052,11.185   c-3.378,2.798-8.387,2.327-11.178-1.052C42.983,66.68,43.458,61.671,46.837,58.874z M42.545,36.647   c-4.107-1.528-6.205-6.101-4.679-10.213s6.099-6.208,10.21-4.682c4.114,1.524,6.212,6.099,4.682,10.211   C51.231,36.076,46.659,38.171,42.545,36.647z M38.911,53.717c-2.594,0.439-5.047-1.304-5.488-3.895   c-0.436-2.596,1.304-5.052,3.897-5.492c2.592-0.44,5.051,1.309,5.486,3.895C43.252,50.819,41.503,53.278,38.911,53.717z    M23.787,66.028c1.526-4.111,6.099-6.206,10.216-4.679c4.108,1.526,6.206,6.099,4.68,10.207c-1.526,4.121-6.103,6.215-10.21,4.688   C24.354,74.711,22.261,70.142,23.787,66.028z M16.281,44.969c4.32-0.733,8.422,2.176,9.158,6.499   c0.732,4.327-2.176,8.428-6.503,9.164c-4.327,0.732-8.425-2.178-9.161-6.505C9.043,49.803,11.954,45.703,16.281,44.969z"/><path d="M93.306,44.569c0,0-12.454-1.367-14.104,9.018c-1.45,9.154,1.47,18.063-1.702,22.89c-2.961,4.499-5.885,5.07-6.269,5.13   c-5.23-0.032-7.583-3.184-7.764-8.654c-1.873,1.793-3.923,3.424-6.108,4.871c0.636,1.442,1.618,2.737,3.041,3.836   c7.619,5.885,15.854-0.748,15.854-0.748s7.619-4.51,7.147-19.261C82.922,46.902,95,51.421,95,51.421L93.306,44.569z"/></g></g><g id="SvgjsG5016" featureKey="nameFeature-0" transform="matrix(2.4739782986045578,0,0,2.4739782986045578,3.0716641184760434,98.51215234046029)" fill="#000"><path d="M18.56 12.600000000000001 c-1.88 9.04 -4.24 17.4 -5.04 28.12 c-1.08 0.4 -2.96 0.04 -3.64 -1.16 c-1.44 -0.2 -2.84 -1 -3 -2.64 c-0.24 -2.36 0.28 -5.24 0.76 -7.8 l-0.44 0.08 c-0.84 4.36 -1.68 8.88 -1.48 13.28 c-1.28 0.48 -3.28 -0.16 -3.96 -1.24 c-1.6 -0.28 -3 -1.24 -3 -2.72 c-0.08 -9.52 2.88 -18.92 4.88 -28.12 c2.56 -0.44 3.6 0.52 5.56 1.72 c-0.08 0.52 -0.2 1.04 -0.28 1.52 c0.48 0.28 0.72 0.6 1.2 0.88 c-0.4 1.96 -0.6 3.92 -1.04 5.88 l0.16 0 c0.68 -3.64 1.64 -7.16 2.72 -11.8 c2.28 -0.32 3.88 0.12 5.48 1.76 l-0.28 1.28 c0.52 0.2 1 0.52 1.4 0.96 z M16.36 10.68 c-1.04 -1 -2.24 -1.36 -3.6 -1.2 c-0.96 4.28 -1.96 7.88 -2.68 11.8 c-1.32 0.2 -2.6 0.44 -4 0.84 c0.72 -3.4 1.44 -6.44 2 -9.52 c-1.08 -0.68 -2.24 -1.52 -3.6 -1.32 c-1.92 8.84 -4.8 18.16 -4.72 27.24 c0 1.24 2.28 2.24 3.76 1.8 c-0.2 -4.36 0.68 -8.88 1.52 -13.28 c1.4 -0.32 2.64 -0.68 4.2 -1.12 c-0.32 2 -0.76 3.88 -1.04 5.76 c-0.28 1.84 -0.48 3.64 -0.32 5.16 c0.16 1.48 2.2 2.12 3.44 1.72 c0.8 -10.6 3.16 -18.92 5.04 -27.88 z M26.573999999999998 13.399999999999999 c-2 7.88 -3.96 19.24 -4.76 28.16 c-1.16 0.32 -2.84 -0.36 -3.68 -1.36 c-1.8 -0.44 -3.4 -1.72 -3.24 -3.4 c0.64 -6.4 3.2 -17.96 4.96 -27.52 c2.36 -0.44 4.56 0.36 5.6 1.96 l-0.28 1.04 c0.6 0.28 1.12 0.68 1.4 1.12 z M24.374 11.399999999999999 c-0.6 -0.8 -2.2 -1.48 -3.64 -1.28 c-1.68 9 -4.2 20.4 -4.84 26.76 c-0.12 1.4 2.2 2.84 3.76 2.52 c0.76 -8.88 2.72 -20.12 4.72 -28 z M41.94799999999999 11.559999999999999 c0.36 0.08 -0.04 4.12 -1.4 5.4 c-0.6 0.56 -2.72 0.48 -3.84 0.64 c-1.24 4.48 -3.8 20.52 -3.64 25.08 c-1.2 -0.16 -3.56 -0.52 -4.16 -1.72 c-1.64 -0.52 -2.96 -1.36 -2.92 -2.64 c0.24 -6.64 2.2 -13.04 3.4 -19.56 c-0.52 0.08 -0.96 0.2 -1.4 0.32 c-0.04 -0.32 0.04 -0.92 0.24 -1.64 c-0.84 0.12 -1.76 0.32 -2.88 0.68 c-0.32 -1.96 0.92 -6.64 2.32 -7.16 c3.44 -1.24 9.56 -2.28 12.92 -2.16 c0.2 0.64 0.32 1.24 0.16 2.8 c0.4 -0.04 0.8 -0.04 1.2 -0.04 z M39.908 9.760000000000002 c-3.16 -0.08 -8.56 0.92 -11.88 2.16 c-0.64 0.24 -1.8 3.68 -1.84 4.88 c1.28 -0.32 3.08 -0.48 4.68 -0.88 c-0.56 4 -1.48 7.64 -2.28 11.32 c-0.76 3.68 -1.44 7.36 -1.6 11.12 c-0.04 1.52 2.48 1.92 3.88 2.12 c-0.08 -4.92 2.4 -20.48 3.68 -25.04 c0.68 -0.12 1.52 -0.12 2.28 -0.2 s1.36 -0.2 1.6 -0.44 c0.6 -0.56 1.04 -1.84 1.28 -3.04 c0.16 -1.04 0.36 -1.92 0.2 -2 z M52.961999999999996 11.399999999999999 c0.16 1.52 -0.64 3.32 -1.88 4.36 c-0.92 0.76 -2.64 0.6 -3.76 1.2 c-0.48 1.16 -0.88 2.28 -1.16 3.44 c0.6 -0.04 1.32 0 2.24 0.04 c0 0.88 -0.12 1.88 -0.4 2.76 c0.52 -0.04 1.04 -0.04 1.6 0 c0 1.12 -0.48 3.4 -1.8 3.88 c-0.8 0.28 -2.52 0.56 -2.8 1.16 c-0.92 2.32 -1.52 10.2 -1.4 11.8 c-0.68 0.8 -1.64 1.56 -3.52 2.04 c-0.6 0.16 -1.2 -0.24 -1.16 -0.96 l0.08 -0.48 c-0.24 0.08 -0.48 0.16 -0.72 0.2 c-1 0.28 -2.28 -0.4 -2.12 -1.8 c0.64 -7.4 2.48 -15.88 3.92 -23.44 c0.36 -1.84 1 -4.4 1.76 -5.12 c1.92 -1.88 7.44 -2.08 9.88 -1.8 c0.08 1 0 1.88 -0.24 2.72 c1 -0.04 1.48 0 1.48 0 z M50.80199999999999 9.600000000000001 c-0.44 -0.04 -1.84 -0.08 -4.2 0.2 c-1.96 0.24 -3.28 0.64 -4.08 1.4 c-0.64 0.6 -1.12 2.88 -1.48 4.6 c-1.4 7.52 -3.24 15.96 -3.92 23.36 c-0.04 0.56 0.44 0.84 0.88 0.72 c1.84 -0.44 2.72 -1.16 3.36 -1.92 c-0.08 -1.8 0.52 -9.48 1.48 -11.8 c0.28 -0.68 2.24 -1.04 2.88 -1.28 c1.16 -0.4 1.64 -2.32 1.68 -3.48 c-1.32 -0.08 -2.52 0.08 -3.92 0.28 c0.16 -2.6 0.72 -4.64 1.68 -6.88 c0.64 -0.32 1.36 -0.44 2.08 -0.56 c0.68 -0.16 1.28 -0.32 1.72 -0.64 c1.12 -0.96 1.88 -2.6 1.84 -4 z M60.976 34.76 c0.76 0.72 0.2 4.2 -1.64 5.36 c-1.92 1.24 -5.92 2.28 -7.36 1.8 c-0.32 -0.12 -0.48 -0.52 -0.6 -1.12 c-0.64 0.04 -1.24 0 -1.64 -0.12 c-1.04 -0.36 -1.48 -3.52 -0.92 -6.52 c1.04 -5.4 3.08 -18.48 4.44 -24.68 c2.52 -0.8 5.36 1.16 5.36 3.24 c0.8 0.64 1.32 1.52 1.16 2.32 c-1.08 5.36 -2.72 11.6 -3.64 17.76 c1 -0.36 2 -0.72 3.08 -0.88 c0.72 0.68 0.92 1.88 0.72 3.08 c0.4 -0.08 0.72 -0.16 1.04 -0.24 z M58.896 33 c-0.36 0.04 -0.76 0.16 -1.16 0.28 c-1.32 0.44 -2.92 1.16 -4.28 1.2 c0.76 -7.48 2.84 -15.08 4.12 -21.48 c0.28 -1.36 -1.8 -3.16 -3.44 -2.76 c-1.32 5.84 -3.32 18.72 -4.32 24.12 c-0.52 2.68 -0.44 5.12 0.24 5.36 c1.32 0.44 5.28 -0.52 7.16 -1.76 c1.76 -1.08 2.2 -4.24 1.68 -4.96 z M72.63 13.399999999999999 c-2 7.88 -3.96 19.24 -4.76 28.16 c-1.16 0.32 -2.84 -0.36 -3.68 -1.36 c-1.8 -0.44 -3.4 -1.72 -3.24 -3.4 c0.64 -6.4 3.2 -17.96 4.96 -27.52 c2.36 -0.44 4.56 0.36 5.6 1.96 l-0.28 1.04 c0.6 0.28 1.12 0.68 1.4 1.12 z M70.42999999999999 11.399999999999999 c-0.6 -0.8 -2.2 -1.48 -3.64 -1.28 c-1.68 9 -4.2 20.4 -4.84 26.76 c-0.12 1.4 2.2 2.84 3.76 2.52 c0.76 -8.88 2.72 -20.12 4.72 -28 z M87.684 10.84 c-2.32 6.4 -4.44 11.64 -6.6 16.6 c0.8 4.52 1.76 8.56 2.68 12.76 c-0.72 1.48 -3.44 2.88 -4 1.16 c-0.08 -0.2 -0.16 -0.44 -0.2 -0.68 c-1.12 0.28 -2.2 0.04 -2.56 -1.08 c-0.2 -0.56 -0.36 -1.16 -0.56 -1.76 l-1.72 3.76 c-1.48 0.2 -2.64 -0.52 -3.72 -1.32 l0.04 -0.08 c-1.12 -0.28 -2 -0.92 -3.04 -1.68 c2.12 -4.8 4.04 -9.2 5.96 -13.64 c-0.48 -3.44 -0.88 -7.16 -1.24 -11.12 c-0.28 -2.84 3.16 -4.44 5.6 -4.04 c0.04 1 0.08 1.88 0.12 2.76 c0.32 -0.08 0.6 -0.12 0.88 -0.12 c0.4 -0.96 0.8 -1.96 1.24 -2.92 c0.84 -2.08 5 -2.84 5.96 -0.64 l-0.52 1.44 c0.8 -0.04 1.48 0.16 1.68 0.6 z M85.44399999999999 8.84 c-0.44 -0.68 -3.32 -0.64 -3.96 1 c-1.08 2.56 -2.16 5.12 -3.56 8.44 c-0.28 -2.92 -0.48 -5.24 -0.56 -7.72 c-1.48 -0.08 -3.8 1.28 -3.64 3.12 c0.36 4 0.8 7.8 1.28 11.36 c-1.96 4.48 -3.92 8.88 -5.76 13.16 c1.04 0.76 2.04 1.36 3.36 1.2 c1.12 -2.44 2.16 -4.76 3.48 -7.64 c0.64 3.24 1.2 5.56 1.88 7.52 c0.52 1.56 2.88 0.24 3.6 -1.08 c-0.96 -4.2 -1.88 -8.24 -2.68 -12.8 c2.16 -4.96 4.28 -10.2 6.56 -16.56 z"/></g>
			</g>
		</svg>
	